<svg xmlns="http://www.w3.org/2000/svg" xmlns:xlink="http://www.w3.org/1999/xlink" viewBox="0 0 1024 1024"><defs><style>.cls-1{isolation:isolate;}.cls-2{fill:#e36302;}.cls-3{fill:#f9a01b;}.cls-4{fill:#f4783b;}.cls-5,.cls-7{opacity:0.5;}.cls-5,.cls-6,.cls-7{mix-blend-mode:multiply;}.cls-5{fill:url(#linear-gradient);}.cls-6{opacity:0.6;fill:url(#Fade_to_Black_2);}.cls-7{fill:url(#linear-gradient-2);}</style><linearGradient id="linear-gradient" x1="457.82" y1="222.92" x2="550.61" y2="240.95" gradientTransform="matrix(0.97, 0.23, -0.23, 0.97, 53.82, -106.65)" gradientUnits="userSpaceOnUse"><stop offset="0" stop-color="#231f20" stop-opacity="0"/><stop offset="0.53" stop-color="#231f20" stop-opacity="0.48"/><stop offset="1" stop-color="#231f20"/></linearGradient><linearGradient id="Fade_to_Black_2" x1="632.96" y1="669.75" x2="746.68" y2="669.75" gradientTransform="matrix(0.97, 0.23, -0.23, 0.97, 53.82, -106.65)" gradientUnits="userSpaceOnUse"><stop offset="0" stop-color="#231f20"/><stop offset="1" stop-color="#231f20" stop-opacity="0"/></linearGradient><linearGradient id="linear-gradient-2" x1="634.52" y1="587.13" x2="658.45" y2="710.95" gradientTransform="translate(44.98 1298.96) rotate(-110.86)" gradientUnits="userSpaceOnUse"><stop offset="0" stop-color="#231f20" stop-opacity="0"/><stop offset="0.34" stop-color="#231f20" stop-opacity="0.11"/><stop offset="0.67" stop-color="#231f20" stop-opacity="0.45"/><stop offset="1" stop-color="#231f20"/></linearGradient></defs><title>thairun-man-lg</title><g class="cls-1"><g id="Layer_1" data-name="Layer 1"><path class="cls-2" d="M509.2,491.37l-.06,0,.18.45C509.28,491.65,509.25,491.5,509.2,491.37Z"/><path class="cls-2" d="M525.08,421.4l-.1,0,.21.15Z"/><path class="cls-3" d="M834.46,488.71a214.24,214.24,0,0,0,22.68-31.47l-53.86-48.42a153.25,153.25,0,0,1-10.8,17.48C744,493,651.82,508.71,584,463.11c-1.55-1-3.16-1.95-4.69-3.06a151.12,151.12,0,0,1-26.08-24.2h-.05l0-.09c-1.87-1.12-3.81-2-5.7-3.09a213.91,213.91,0,0,0-108.35-27.08,177.23,177.23,0,0,1,70,85.75l.06,0c0,.14.07.28.12.42a177.52,177.52,0,0,1-298.24,181.6l-44.22,75.5a246.8,246.8,0,0,0,41.41,30.47c81.63,47.81,179.68,43.19,255-3.5l-.07.07.17-.14q8.95-5.55,17.44-11.89c16.39-9.13,37-16.9,52.08-22C615.53,714,705.44,758.6,733.31,841.24A157.61,157.61,0,0,1,741.53,887l86.06-30.56a247,247,0,0,0-10.34-43.51c-35.46-105.14-135.3-170.69-240.86-167.72a237.52,237.52,0,0,0,22.34-96.53C679.75,578.64,774.46,557.62,834.46,488.71Z"/><path class="cls-4" d="M281.66,478.63A214.12,214.12,0,0,0,259,510.1l53.86,48.42a151.32,151.32,0,0,1,196.3-67.18,177.23,177.23,0,0,0-70-85.75C380.74,406.59,323,431.18,281.66,478.63Z"/><path class="cls-4" d="M663.82,188.47A127.47,127.47,0,1,0,782.7,324,127.47,127.47,0,0,0,663.82,188.47Zm16.26,202.38c-41.32,13.61-85.51-9.32-99.37-51.39a78,78,0,0,1,49.89-98.87c41.33-13.61,86,8.31,99.63,49.63C744.07,332.29,721.4,377.23,680.07,390.84Z"/><path class="cls-3" d="M552.56,214.3,391.47,137,352.8,217.57l159.93,76.74a133.23,133.23,0,0,1,39.83-80Z"/><path class="cls-5" d="M512.73,294.31a133.22,133.22,0,0,1,39.83-80l-76.37-37.53a133.18,133.18,0,0,0-39.61,79.79"/><path class="cls-4" d="M741.53,887s-1-109-109.77-145.74c0,0-60.08-22.78-129.57,12.3,0,0,40.41-20.29,74.2-108.35,0,0,173.06-12.29,240.86,167.72,0,0,10.76,35.72,10.34,43.51Z"/><path class="cls-6" d="M576.38,645.21s-30.26,83-74.2,108.35c0,0,53.32-28.14,107.56-17.71l33-83.43S609.8,643.71,576.38,645.21Z"/><path class="cls-7" d="M385.5,491.11s56.36-28.78,123.83.67c0,0-19.47-55.24-70.09-86.18,0,0-42.12-.78-87.59,19.42S365.54,464.28,385.5,491.11Z"/></g></g></svg>